<?xml version="1.0" standalone="no"?>
<!DOCTYPE svg PUBLIC "-//W3C//DTD SVG 20010904//EN"
 "http://www.w3.org/TR/2001/REC-SVG-20010904/DTD/svg10.dtd">
<svg version="1.0" xmlns="http://www.w3.org/2000/svg"
 width="100.000000pt" height="20.000000pt" viewBox="0 0 100.000000 20.000000"
 preserveAspectRatio="xMidYMid meet">
<metadata>
Created by potrace 1.15, written by Peter Selinger 2001-2017
</metadata>
<g transform="translate(0.000000,20.000000) scale(0.100000,-0.100000)"
fill="#000000" stroke="none">
<path d="M320 165 c0 -8 7 -15 15 -15 8 0 15 7 15 15 0 8 -7 15 -15 15 -8 0
-15 -7 -15 -15z"/>
<path d="M187 123 c1 -27 2 -58 2 -70 1 -37 19 -26 23 12 4 48 22 49 26 3 5
-56 24 -46 20 9 -3 42 -6 48 -25 47 -18 0 -23 5 -23 23 0 13 -6 23 -12 23 -9
0 -12 -15 -11 -47z"/>
<path d="M433 153 c-4 -10 -11 -22 -17 -26 -8 -6 -7 -10 2 -14 7 -2 12 -22 12
-44 0 -29 4 -39 16 -39 10 0 15 8 14 23 -4 42 0 57 15 57 23 0 18 18 -7 23
l-23 4 23 8 c30 10 28 25 -3 25 -15 0 -28 -7 -32 -17z"/>
<path d="M81 146 c-17 -21 -7 -44 24 -56 14 -5 25 -17 25 -26 0 -13 -6 -15
-31 -10 -22 4 -29 2 -27 -7 6 -17 56 -21 74 -6 22 18 17 38 -16 57 -38 22 -41
47 -4 38 19 -5 25 -3 22 6 -7 19 -53 21 -67 4z"/>
<path d="M534 145 c3 -9 0 -15 -9 -15 -8 0 -15 -4 -15 -10 0 -5 5 -10 10 -10
6 0 10 -9 10 -21 0 -32 19 -59 40 -59 11 0 20 5 20 10 0 6 -7 10 -15 10 -10 0
-15 10 -15 30 0 20 5 30 15 30 8 0 15 5 15 10 0 6 -7 10 -15 10 -8 0 -15 7
-15 15 0 8 -7 15 -16 15 -10 0 -14 -6 -10 -15z"/>
<path d="M300 120 c0 -5 5 -10 10 -10 6 0 10 -13 10 -30 0 -20 -5 -30 -15 -30
-8 0 -15 -4 -15 -10 0 -5 20 -10 45 -10 25 0 45 5 45 10 0 6 -7 10 -15 10 -11
0 -15 11 -15 40 0 36 -2 40 -25 40 -14 0 -25 -4 -25 -10z"/>
<path d="M631 116 c-16 -19 -10 -66 10 -79 17 -11 69 -2 69 11 0 5 -13 7 -30
4 -18 -3 -30 0 -30 7 0 6 14 11 30 11 22 0 30 5 30 18 0 39 -55 58 -79 28z
m49 -16 c0 -5 -7 -10 -15 -10 -8 0 -15 5 -15 10 0 6 7 10 15 10 8 0 15 -4 15
-10z"/>
<path d="M750 79 c0 -57 17 -66 22 -11 3 31 6 37 26 36 12 0 21 4 19 10 -2 6
-18 12 -35 13 -32 1 -32 1 -32 -48z"/>
<path d="M857 124 c-16 -16 -6 -44 18 -50 33 -8 32 -28 0 -21 -16 3 -24 0 -22
-7 2 -6 17 -11 33 -11 24 0 29 4 29 25 0 18 -6 26 -22 28 -13 2 -23 8 -23 14
0 6 11 8 25 5 16 -3 24 0 22 7 -4 13 -49 20 -60 10z"/>
</g>
</svg>
