<?xml version="1.0" standalone="no"?>
<!DOCTYPE svg PUBLIC "-//W3C//DTD SVG 20010904//EN"
 "http://www.w3.org/TR/2001/REC-SVG-20010904/DTD/svg10.dtd">
<svg version="1.0" xmlns="http://www.w3.org/2000/svg"
 width="640.000000pt" height="159.000000pt" viewBox="0 0 640.000000 159.000000"
 preserveAspectRatio="xMidYMid meet">
<metadata>
Created by potrace 1.15, written by Peter Selinger 2001-2017
</metadata>
<g transform="translate(0.000000,159.000000) scale(0.100000,-0.100000)"
fill="#000000" stroke="none">
<path d="M2074 1300 l-20 -110 93 0 c51 0 93 2 93 4 0 3 6 35 14 73 8 37 17
85 20 106 l7 37 -94 0 -93 0 -20 -110z"/>
<path d="M1095 1318 c-9 -43 -185 -955 -185 -962 0 -4 41 -5 92 -4 l92 3 46
236 c50 251 66 296 120 324 37 19 70 19 98 -1 32 -22 29 -83 -18 -324 -22
-113 -40 -213 -40 -222 0 -16 11 -18 89 -18 84 0 89 1 94 23 24 94 97 507 97
543 0 105 -77 172 -186 161 -63 -6 -109 -29 -150 -74 l-31 -33 34 172 c18 95
33 179 33 186 0 9 -25 12 -90 12 -85 0 -90 -1 -95 -22z"/>
<path d="M2962 1329 c-94 -18 -148 -84 -173 -211 l-12 -58 -87 0 -87 0 -6 -37
c-4 -21 -9 -53 -13 -70 l-6 -33 87 0 c85 0 87 0 82 -22 -3 -13 -27 -131 -52
-263 -25 -132 -49 -250 -52 -263 -5 -22 -4 -22 89 -22 l94 0 55 285 54 285
111 0 111 0 6 45 c4 25 9 56 13 70 l6 24 -110 3 -109 3 12 50 c19 73 40 85
145 85 l87 0 12 57 c18 89 25 83 -101 82 -62 -1 -132 -5 -156 -10z"/>
<path d="M464 1307 c-100 -26 -195 -102 -229 -183 -23 -56 -30 -137 -15 -189
18 -64 77 -113 201 -166 122 -52 149 -79 149 -149 0 -150 -220 -188 -389 -67
l-50 36 -11 -57 c-7 -31 -15 -74 -20 -95 -8 -36 -7 -38 28 -53 94 -39 148 -49
262 -48 146 1 210 23 285 98 62 62 85 121 85 220 0 130 -41 179 -223 266 -145
69 -171 106 -127 178 53 86 229 95 343 18 l36 -25 12 57 c6 31 12 73 13 92 1
34 -1 36 -54 53 -71 24 -228 31 -296 14z"/>
<path d="M3544 1163 l-20 -98 -91 -3 -91 -3 -11 -50 c-20 -92 -23 -89 77 -89
l89 0 -38 -192 c-44 -220 -46 -250 -21 -297 30 -60 75 -75 238 -79 l141 -4 7
48 c4 27 10 59 13 72 5 22 4 22 -90 22 -78 0 -99 3 -118 19 l-24 19 34 173
c18 96 35 184 38 197 5 21 9 22 128 22 l122 0 6 38 c4 20 9 52 13 70 l7 32
-122 0 c-66 0 -121 2 -121 4 0 5 27 139 35 174 5 22 4 22 -89 22 l-93 0 -19
-97z"/>
<path d="M4309 1058 c-114 -41 -193 -123 -241 -255 -18 -46 -22 -81 -23 -168
0 -99 3 -115 26 -160 29 -57 91 -109 152 -127 63 -19 249 -15 325 7 34 10 65
22 69 28 5 9 33 142 33 160 0 4 -18 -2 -40 -13 -52 -26 -152 -50 -215 -50
-113 0 -165 36 -173 120 l-5 50 245 0 245 0 7 46 c20 148 -5 247 -78 312 -52
45 -100 63 -186 68 -61 4 -87 0 -141 -18z m213 -167 c19 -22 28 -42 28 -66 l0
-35 -150 0 -150 0 19 38 c36 70 97 105 175 98 41 -3 55 -9 78 -35z"/>
<path d="M5319 1064 c-27 -8 -68 -33 -97 -59 l-50 -45 9 38 c15 65 18 63 -83
60 l-92 -3 -68 -340 c-37 -187 -67 -346 -67 -352 -1 -10 24 -13 92 -13 l93 0
37 196 c41 215 68 289 120 328 66 51 187 59 264 19 l40 -21 15 82 c15 74 15
82 0 94 -42 33 -136 40 -213 16z"/>
<path d="M5890 1064 c-163 -44 -238 -184 -173 -322 20 -41 74 -73 184 -106 90
-27 119 -48 119 -85 0 -36 -17 -58 -60 -75 -72 -29 -183 -16 -277 32 -48 25
-43 30 -63 -72 -14 -68 -13 -69 65 -86 153 -34 324 -19 407 35 115 76 141 237
52 322 -24 22 -63 41 -131 63 -131 42 -145 52 -141 97 5 57 42 78 136 78 63 0
88 -5 136 -28 32 -15 62 -27 66 -27 11 0 33 141 24 150 -16 15 -161 40 -226
39 -35 0 -88 -7 -118 -15z"/>
<path d="M1845 1048 c-4 -14 -25 -116 -25 -123 0 -3 41 -5 91 -5 89 0 91 0 86
-22 -3 -13 -22 -109 -42 -215 l-37 -192 -116 -3 -116 -3 -13 -60 c-7 -33 -12
-63 -13 -67 0 -5 146 -8 324 -8 l323 0 12 57 c18 89 25 83 -102 83 l-114 0 54
273 c29 149 53 278 53 285 0 9 -43 12 -180 12 -136 0 -182 -3 -185 -12z"/>
</g>
</svg>
